<svg width="1200" height="630" viewBox="0 0 1200 630" xmlns="http://www.w3.org/2000/svg">
    <rect width="100%" height="100%" fill="#2c3e50"/>
    <circle cx="600" cy="315" r="200" fill="#3498db" opacity="0.7"/>
    <path d="M400,315 A200,200 0 0,1 800,315" fill="none" stroke="#ecf0f1" stroke-width="15"/>
    <path d="M450,200 A150,150 0 0,1 750,200" fill="none" stroke="#ecf0f1" stroke-width="10" opacity="0.8"/>
    <path d="M500,430 A150,150 0 0,0 700,430" fill="none" stroke="#ecf0f1" stroke-width="10" opacity="0.8"/>
    <text x="600" y="200" font-family="Montserrat, sans-serif" font-size="60" fill="#ffffff" text-anchor="middle" font-weight="bold">Global Population</text>
    <text x="600" y="260" font-family="Montserrat, sans-serif" font-size="60" fill="#ffffff" text-anchor="middle" font-weight="bold">Insights</text>
    <rect x="400" y="380" width="80" height="150" fill="#e74c3c" rx="10"/>
    <rect x="500" y="330" width="80" height="200" fill="#f1c40f" rx="10"/>
    <rect x="600" y="300" width="80" height="230" fill="#2ecc71" rx="10"/>
    <rect x="700" y="350" width="80" height="180" fill="#9b59b6" rx="10"/>
    <text x="600" y="580" font-family="Roboto, sans-serif" font-size="30" fill="#ecf0f1" text-anchor="middle">Data Visualization & Policy Brief</text>
</svg>